<?xml version="1.0" encoding="iso-8859-1"?>
<svg height="48px" width="48px" version="1.1" id="Layer_1" xmlns="http://www.w3.org/2000/svg" xmlns:xlink="http://www.w3.org/1999/xlink" 
	 viewBox="0 0 512 512" xml:space="preserve">
<g>
	<circle style="fill:#CEE8FA;" cx="256.001" cy="278.864" r="39.693"/>
	<path style="fill:#CEE8FA;" d="M344.374,416.446v64.158c-27.372,10.793-57.183,16.711-88.373,16.711s-61.001-5.918-88.373-16.697
		v-64.173H344.374z"/>
</g>
<path style="fill:#2D527C;" d="M256.001,0c-141.159,0-256,114.841-256,256c0,52.423,15.735,102.82,45.504,145.741
	c29.076,41.922,69.446,73.922,116.743,92.542c7.464,2.938,15.034,5.516,22.695,7.729c1.915,0.554,3.836,1.084,5.762,1.59
	c15.413,4.059,31.179,6.657,47.188,7.771c6.003,0.419,12.042,0.627,18.108,0.627c32.37,0,63.914-5.966,93.743-17.729
	c15.3-6.012,30.083-13.553,43.938-22.413c6.831-4.369,8.83-13.45,4.46-20.283c-4.37-6.831-13.45-8.831-20.284-4.46
	c-6.079,3.887-12.36,7.486-18.801,10.777v-41.446c0-8.11-6.576-14.685-14.685-14.685h-3.197c-0.587-3.499-0.887-7.046-0.887-10.613
	c0-31.685,23.607-58.993,54.915-63.521c5.049-0.73,9.359-4.03,11.381-8.715c2.022-4.684,1.466-10.084-1.467-14.259l-137.1-195.149
	c-2.749-3.913-7.234-6.243-12.017-6.243c-4.783,0-9.266,2.329-12.017,6.243l-137.1,195.148c-2.934,4.175-3.489,9.574-1.467,14.259
	c2.022,4.686,6.331,7.986,11.381,8.715c31.307,4.527,54.914,31.835,54.914,63.521c0,3.567-0.3,7.113-0.887,10.613h-3.197
	c-8.11,0-14.685,6.574-14.685,14.685v41.446C77.219,419.421,29.37,342.391,29.37,256c0-124.965,101.666-226.63,226.63-226.63
	S482.631,131.035,482.631,256c0,18.678-2.273,37.242-6.758,55.178c-1.968,7.868,2.817,15.84,10.683,17.807
	c7.867,1.968,15.84-2.815,17.808-10.685c5.066-20.262,7.635-41.223,7.635-62.3C512.001,114.841,397.16,0,256.001,0z
	 M182.312,431.131h147.377v39.238c-0.117,0.041-0.235,0.084-0.352,0.125c-0.555,0.189-1.113,0.37-1.67,0.555
	c-1.031,0.344-2.063,0.686-3.097,1.015c-0.634,0.201-1.272,0.395-1.908,0.59c-0.966,0.298-1.934,0.592-2.905,0.877
	c-0.661,0.194-1.323,0.382-1.985,0.57c-0.956,0.27-1.912,0.535-2.871,0.793c-0.668,0.179-1.336,0.357-2.006,0.532
	c-0.972,0.251-1.946,0.495-2.922,0.733c-0.651,0.159-1.301,0.32-1.953,0.474c-1.035,0.244-2.073,0.474-3.113,0.703
	c-0.592,0.131-1.184,0.266-1.777,0.392c-1.257,0.266-2.518,0.517-3.78,0.761c-0.376,0.073-0.75,0.153-1.126,0.223
	c-1.639,0.308-3.281,0.599-4.927,0.871c-0.435,0.072-0.871,0.134-1.306,0.203c-1.216,0.194-2.433,0.383-3.654,0.558
	c-0.612,0.087-1.226,0.164-1.839,0.247c-1.047,0.141-2.096,0.279-3.144,0.405c-0.67,0.081-1.341,0.154-2.012,0.228
	c-1.004,0.112-2.01,0.219-3.016,0.317c-0.686,0.068-1.372,0.129-2.057,0.191c-1.004,0.088-2.009,0.17-3.016,0.245
	c-0.681,0.051-1.364,0.101-2.047,0.147c-1.032,0.068-2.068,0.126-3.103,0.179c-0.653,0.034-1.305,0.072-1.96,0.1
	c-1.137,0.05-2.275,0.085-3.413,0.119c-0.551,0.016-1.098,0.038-1.649,0.05c-1.69,0.037-3.382,0.059-5.078,0.059
	c-1.693,0-3.383-0.022-5.072-0.059c-0.555-0.012-1.109-0.035-1.662-0.051c-1.135-0.032-2.27-0.069-3.404-0.117
	c-0.652-0.028-1.304-0.066-1.955-0.1c-1.035-0.054-2.071-0.112-3.104-0.179c-0.684-0.046-1.367-0.095-2.05-0.147
	c-1.004-0.075-2.007-0.156-3.009-0.245c-0.689-0.06-1.376-0.123-2.063-0.191c-1.007-0.098-2.013-0.206-3.019-0.317
	c-0.667-0.073-1.333-0.147-1.999-0.226c-1.057-0.126-2.112-0.266-3.165-0.407c-0.608-0.082-1.216-0.159-1.822-0.245
	c-1.235-0.176-2.467-0.367-3.698-0.564c-0.419-0.066-0.839-0.126-1.256-0.195c-1.651-0.273-3.298-0.564-4.941-0.874
	c-0.352-0.066-0.705-0.141-1.057-0.21c-1.285-0.248-2.568-0.504-3.849-0.774c-0.582-0.123-1.162-0.256-1.742-0.383
	c-1.054-0.232-2.107-0.465-3.157-0.712c-0.636-0.15-1.27-0.307-1.906-0.461c-0.994-0.242-1.987-0.491-2.977-0.746
	c-0.655-0.169-1.308-0.344-1.96-0.518c-0.977-0.263-1.952-0.532-2.924-0.806c-0.645-0.182-1.291-0.366-1.934-0.555
	c-0.999-0.292-1.994-0.595-2.988-0.9c-0.608-0.187-1.216-0.372-1.822-0.564c-1.084-0.344-2.165-0.702-3.245-1.062
	c-0.508-0.17-1.018-0.333-1.524-0.507c-0.126-0.044-0.253-0.091-0.379-0.134v-39.248H182.312z M142.86,304.535l113.14-161.044
	l113.14,161.044c-34.346,14.122-58.221,48.157-58.221,86.612c0,3.555,0.203,7.097,0.602,10.61h-40.837v-70.541
	c22.87-6.425,39.693-27.452,39.693-52.347c0-29.985-24.393-54.379-54.378-54.379c-29.983,0-54.378,24.394-54.378,54.379
	c0,24.895,16.823,45.922,39.693,52.347v70.541h-40.837c0.401-3.514,0.602-7.055,0.602-10.61
	C201.083,352.692,177.207,318.659,142.86,304.535z M256.001,303.878c-13.79,0-25.008-11.219-25.008-25.008
	c0-13.789,11.219-25.01,25.008-25.01c13.789,0,25.008,11.219,25.008,25.01S269.791,303.878,256.001,303.878z"/>
</svg>